<svg width="100" height="59" viewBox="0 0 100 59" fill="none" xmlns="http://www.w3.org/2000/svg">
<g clip-path="url(#clip0_1_124)">
<path d="M28.7221 33.8042C31.476 33.8042 33.7085 31.483 33.7085 28.6195C33.7085 25.7561 31.476 23.4348 28.7221 23.4348C25.9681 23.4348 23.7356 25.7561 23.7356 28.6195C23.7356 31.483 25.9681 33.8042 28.7221 33.8042Z" fill="url(#paint0_radial_1_124)"/>
<path d="M35.382 48.3088C33.3308 49.0251 31.1811 49.3894 29.0173 49.3872C18.0012 49.3872 9.07138 40.1024 9.07138 28.6484C9.07138 19.4528 14.8278 11.6571 22.7981 8.94027L19.9379 0.00183105C8.3673 3.89451 0 15.1889 0 28.5157C0 45.0673 12.903 58.4833 28.8218 58.4833C32.077 58.4833 35.2045 57.9212 38.1226 56.8884L35.382 48.3088Z" fill="url(#paint1_radial_1_124)"/>
<path d="M36.0941 37.3403C34.1274 39.1404 31.5484 40.2333 28.7221 40.2333C22.5528 40.2333 17.5524 35.0341 17.5524 28.6196C17.5524 22.2051 22.5528 17.0058 28.7221 17.0058C31.5444 17.0058 34.1194 18.0967 36.0861 19.8927L41.9881 12.8975C38.4995 9.78873 33.9698 7.91187 29.0153 7.91187C17.9992 7.91187 9.0694 17.1966 9.0694 28.6507C9.0694 40.1047 17.9992 49.3895 29.0153 49.3895C33.9898 49.3895 38.5374 47.4961 42.03 44.3666L36.0941 37.3403Z" fill="#222222"/>
<path d="M62.4306 18.2501H59.696L55.0506 31.8029L50.4052 18.2501H43.5079L41.288 21.0001V36.2576L43.492 38.9889H47.6706V25.5854L52.2662 38.9889H57.7333L62.3807 25.4361L62.4306 25.5854V38.9889H68.8133V18.2501H62.4306ZM98.1277 18.2501H89.3994L80.3819 25.8737V18.2501H73.9992V38.9889H80.3819V33.2505L83.4536 30.654L89.9719 38.9889H98.1975L88.4061 26.4668L98.1277 18.2501Z" fill="#222222"/>
</g>
<defs>
<radialGradient id="paint0_radial_1_124" cx="0" cy="0" r="1" gradientUnits="userSpaceOnUse" gradientTransform="translate(23.9141 28.6195) scale(9.59035 311.116)">
<stop stop-color="#860806"/>
<stop offset="0.154255" stop-color="#A71111"/>
<stop offset="0.768617" stop-color="#B70101"/>
<stop offset="1" stop-color="#AB0102"/>
</radialGradient>
<radialGradient id="paint1_radial_1_124" cx="0" cy="0" r="1" gradientUnits="userSpaceOnUse" gradientTransform="translate(0.682501 29.2426) scale(36.6601 1754.63)">
<stop stop-color="#860806"/>
<stop offset="0.154255" stop-color="#A71111"/>
<stop offset="0.768617" stop-color="#B70101"/>
<stop offset="1" stop-color="#AB0102"/>
</radialGradient>
<clipPath id="clip0_1_124">
<rect width="99.7294" height="58.4835" fill="white"/>
</clipPath>
</defs>
</svg>
