<svg width="27" height="20" viewBox="0 0 27 20" fill="none" xmlns="http://www.w3.org/2000/svg">
<path d="M1.99466 0.130005C1.73333 0.130005 1.48545 0.193057 1.25703 0.296811L12.5388 11.6072C13.0265 12.096 13.5459 12.0965 14.0347 11.6072L25.3372 0.296811C25.1091 0.192792 24.861 0.130005 24.5996 0.130005H1.99448H1.99466ZM0.0208691 2.09658C0.0081157 2.2006 0 2.30994 0 2.41822V17.6741C0 18.9417 0.889483 19.9626 1.99469 19.9626H24.5998C25.7047 19.9626 26.5945 18.9421 26.5945 17.6741V2.41822C26.5945 2.30995 26.5864 2.2006 26.5736 2.09631L15.3435 13.3359C14.1718 14.5084 12.4014 14.5102 11.2296 13.3359L0.0208618 2.09631L0.0208691 2.09658Z" fill="#AE0102"/>
</svg>
