<svg width="19" height="30" viewBox="0 0 19 30" fill="none" xmlns="http://www.w3.org/2000/svg">
<path d="M15.9913 29.3072C13.4354 28.6301 11.089 27.3307 8.95207 25.409C6.81416 23.488 5.04735 21.2288 3.65163 18.6314C2.25493 16.0347 1.2958 13.2235 0.774255 10.1978C0.251717 7.17281 0.315435 4.22627 0.965408 1.3582C1.0561 0.958008 1.25056 0.656004 1.54878 0.452192C1.847 0.248381 2.17443 0.193714 2.53107 0.288192L7.3457 1.56364C7.62309 1.63712 7.84808 1.80278 8.02068 2.06062C8.19328 2.31845 8.26412 2.60825 8.23321 2.93001L7.94783 7.80365C7.91692 8.12541 7.84797 8.4074 7.74099 8.64962C7.63302 8.89252 7.4672 9.0904 7.24353 9.24326L3.64975 11.7557C4.11913 13.5769 4.81923 15.3532 5.75004 17.0846C6.68084 18.8159 7.78327 20.3924 9.0573 21.814L12.5614 19.4193C12.7851 19.2664 13.0521 19.1778 13.3626 19.1535C13.6721 19.1299 13.9605 19.1771 14.2278 19.2951L18.1175 21.3154C18.3798 21.4555 18.5737 21.6657 18.6992 21.946C18.8245 22.2271 18.8519 22.5233 18.7813 22.8346L17.557 28.2372C17.4663 28.6374 17.2718 28.9394 16.9736 29.1432C16.6754 29.347 16.3479 29.4017 15.9913 29.3072Z" fill="#AE0102"/>
</svg>
